<svg xmlns="http://www.w3.org/2000/svg" version="1.1" xmlns:xlink="http://www.w3.org/1999/xlink" xmlns:svgjs="http://svgjs.dev/svgjs" width="1000" height="1000" viewBox="0 0 1000 1000"><rect width="1000" height="1000" fill="#ffffff"></rect><g transform="matrix(0.7,0,0,0.7,149.57575757575756,282.1265587044535)"><svg viewBox="0 0 396 247" data-background-color="#ffffff" preserveAspectRatio="xMidYMid meet" height="623" width="1000" xmlns="http://www.w3.org/2000/svg" xmlns:xlink="http://www.w3.org/1999/xlink"><g id="tight-bounds" transform="matrix(1,0,0,1,0.2400000000000091,-0.09999999999999432)"><svg viewBox="0 0 395.52 247.2" height="247.2" width="395.52"><g><svg></svg></g><g><svg viewBox="0 0 395.52 247.2" height="247.2" width="395.52"><g><g><path d="M114.209 230.112h22.641l-23.279-68.882h-63.142l-24.555 68.882h23.917v6.059h-48.791v-6.059h14.988l28.724-77.385h9.121l-0.534 1.487h57.721l-0.494-1.487 64.907 0 28.386 77.385h14.669v6.059h-104.279zM97.307 11.029h26.15l30.608 83.444-62.883 0-7.906-23.81-8.543 23.81-8.398 0zM203.181 12.942h188.15l3.189 80.044h-6.059c-9.354-28.276-17.646-47.58-24.874-57.912-7.228-10.29-17.646-15.435-31.252-15.435h-3.827v74.834h-62.185v-74.834h-4.146c-13.606 0-24.13 5.357-31.571 16.073-7.441 10.757-15.626 29.849-24.555 57.274h-6.059zM328.508 229.474h27.106v6.697h-116.397v-6.697h27.106l0-76.747 62.185 0z" fill="#ff908b" fill-rule="nonzero" stroke="none" stroke-width="1" stroke-linecap="butt" stroke-linejoin="miter" stroke-miterlimit="10" stroke-dasharray="" stroke-dashoffset="0" font-family="none" font-weight="none" font-size="none" text-anchor="none" style="mix-blend-mode: normal" data-fill-palette-color="tertiary"></path></g></g><g transform="matrix(1,0,0,1,0,101.05297001482157)"><svg viewBox="0 0 395.52 45.09405997035685" height="45.09405997035685" width="395.52"><g><svg viewBox="0 0 395.52 45.09405997035685" height="45.09405997035685" width="395.52"><g><svg viewBox="0 0 395.52 45.09405997035685" height="45.09405997035685" width="395.52"><g><svg viewBox="0 0 395.52 45.09405997035685" height="45.09405997035685" width="395.52"><g><svg viewBox="0 0 395.52 45.09405997035685" height="45.09405997035685" width="395.52"><g><svg viewBox="0 0 395.52 45.09405997035685" height="45.09405997035685" width="395.52"><g transform="matrix(1,0,0,1,0,0)"><svg width="395.52" viewBox="0.3 -37.5 438.51 50" height="45.09405997035685" data-palette-color="#3a9340"><path d="M18.05-0.95L21.6-0.95 17.95-11.75 8.05-11.75 4.2-0.95 7.95-0.95 7.95 0 0.3 0 0.3-0.95 2.65-0.95 15.4-35.3 19.5-35.3 32.1-0.95 34.4-0.95 34.4 0 18.05 0 18.05-0.95ZM17.55-12.85L13.2-25.95 8.5-12.85 17.55-12.85ZM49.15-22.9L47.3-22.9 47.3-23.8 60.2-23.8 60.2-22.9 58.15-22.9 62.65-6.05 67.1-22.9 63.65-22.9 63.65-23.8 70.4-23.8 70.4-22.9 68.3-22.9 62.3 0 55.45 0 51.1-15.35 46.4 0 39.7 0 32.3-22.9 30.05-22.9 30.05-23.8 45.2-23.8 45.2-22.9 42.2-22.9 46.8-5.9 50.4-17.6 49.15-22.9ZM83.3 0.5Q76.85 0.5 73.62-2.83 70.4-6.15 70.4-12.08 70.4-18 74.02-21.15 77.65-24.3 83.25-24.3L83.25-24.3Q94.6-24.3 94.15-12.9L94.15-12.9 80.05-12.9 80.05-10.95Q80.05-6.05 81.3-3.55 82.55-1.05 85.65-1.05L85.65-1.05Q91.45-1.05 93.25-7.25L93.25-7.25 94.15-7.1Q93.2-3.5 90.72-1.5 88.25 0.5 83.3 0.5L83.3 0.5ZM80.1-16.35L80.1-13.9 85.25-13.9 85.25-16.35Q85.25-20.4 84.77-21.88 84.3-23.35 82.87-23.35 81.45-23.35 80.77-21.78 80.1-20.2 80.1-16.35L80.1-16.35ZM97.19 0.5L96.59 0.5 96.59-8.45 97.19-8.45Q98.49-4.1 100.69-2.35 102.89-0.6 106.19-0.6L106.19-0.6Q111.29-0.6 111.29-3.85L111.29-3.85Q111.29-5.25 110.04-5.95L110.04-5.95Q108.09-7.05 105.04-7.65L105.04-7.65Q101.64-8.55 99.34-10.05L99.34-10.05Q96.59-11.85 96.59-15.75 96.59-19.65 98.99-21.98 101.39-24.3 105.39-24.3L105.39-24.3Q107.84-24.3 110.44-23.15L110.44-23.15Q111.39-22.75 111.89-22.75 112.39-22.75 112.74-23.1 113.09-23.45 113.59-24.4L113.59-24.4 114.14-24.4 114.14-16.75 113.54-16.75Q110.99-23.25 105.64-23.25L105.64-23.25Q103.29-23.25 102.14-22.43 100.99-21.6 100.99-20.35L100.99-20.35Q100.99-19.6 101.34-19.18 101.69-18.75 101.89-18.55 102.09-18.35 102.54-18.13 102.99-17.9 103.29-17.78 103.59-17.65 104.22-17.45 104.84-17.25 105.14-17.2L105.14-17.2Q108.54-16.35 110.04-15.73 111.54-15.1 112.89-14.2L112.89-14.2Q115.64-12.3 115.64-8.08 115.64-3.85 113.14-1.68 110.64 0.5 106.29 0.5L106.29 0.5Q103.19 0.5 100.29-0.95L100.29-0.95Q99.69-1.35 99.34-1.35L99.34-1.35Q98.24-1.35 97.19 0.5L97.19 0.5ZM133.29-9.85L133.29-9.85 133.29-14.1Q133.29-18.95 132.77-21.18 132.24-23.4 130.34-23.4L130.34-23.4Q129.24-23.4 128.57-22.78 127.89-22.15 127.59-20.7L127.59-20.7Q127.14-18.45 127.14-13.85L127.14-13.85 127.14-9.95Q127.14-4.5 127.47-3.4 127.79-2.3 128.14-1.6L128.14-1.6Q128.69-0.4 130.29-0.4L130.29-0.4Q132.24-0.4 132.84-2.65L132.84-2.65Q133.29-4.25 133.29-9.85ZM130.19 0.5Q123.94 0.5 120.74-2.7 117.54-5.9 117.54-11.88 117.54-17.85 120.97-21.08 124.39-24.3 130.59-24.3 136.79-24.3 139.84-21.33 142.89-18.35 142.89-12.25L142.89-12.25Q142.89 0.5 130.19 0.5L130.19 0.5ZM144.29-22.9L144.29-23.8 156.34-23.8 156.34-19.2Q157.99-24.3 163.61-24.3 169.24-24.3 170.44-18.9L170.44-18.9Q172.19-24.3 177.79-24.3L177.79-24.3Q185.14-24.3 185.14-15.95L185.14-15.95 185.14-0.9 187.94-0.9 187.94 0 174.09 0 174.09-0.9 175.84-0.9 175.84-17.15Q175.84-20.95 175.19-21.6L175.19-21.6Q174.89-21.9 174.39-21.9L174.39-21.9Q172.94-21.9 171.84-19.95 170.74-18 170.74-15L170.74-15 170.74-0.9 172.54-0.9 172.54 0 159.69 0 159.69-0.9 161.44-0.9 161.44-17.15Q161.44-20.95 160.79-21.6L160.79-21.6Q160.49-21.9 159.99-21.9L159.99-21.9Q158.59-21.9 157.46-19.78 156.34-17.65 156.34-14.7L156.34-14.7 156.34-0.9 158.14-0.9 158.14 0 144.29 0 144.29-0.9 147.04-0.9 147.04-22.9 144.29-22.9ZM201.84 0.5Q195.39 0.5 192.16-2.83 188.94-6.15 188.94-12.08 188.94-18 192.56-21.15 196.19-24.3 201.79-24.3L201.79-24.3Q213.14-24.3 212.69-12.9L212.69-12.9 198.59-12.9 198.59-10.95Q198.59-6.05 199.84-3.55 201.09-1.05 204.19-1.05L204.19-1.05Q209.99-1.05 211.79-7.25L211.79-7.25 212.69-7.1Q211.74-3.5 209.26-1.5 206.79 0.5 201.84 0.5L201.84 0.5ZM198.64-16.35L198.64-13.9 203.79-13.9 203.79-16.35Q203.79-20.4 203.31-21.88 202.84-23.35 201.41-23.35 199.99-23.35 199.31-21.78 198.64-20.2 198.64-16.35L198.64-16.35ZM225.28-35L254.78-35 255.28-22.45 254.33-22.45Q252.13-29.1 250.43-31.53 248.73-33.95 245.53-33.95L245.53-33.95 244.93-33.95 244.93-1.05 249.18-1.05 249.18 0 230.93 0 230.93-1.05 235.18-1.05 235.18-33.95 234.53-33.95Q231.33-33.95 229.58-31.43 227.83-28.9 225.73-22.45L225.73-22.45 224.78-22.45 225.28-35ZM257.63-36.6L257.63-37.5 269.68-37.5 269.68-19.2Q270.48-21.5 272.13-22.9 273.78-24.3 277.13-24.3L277.13-24.3Q284.88-24.3 284.88-15.95L284.88-15.95 284.88-0.9 287.68-0.9 287.68 0 273.53 0 273.53-0.9 275.58-0.9 275.58-17.15Q275.58-20.15 275.18-21.03 274.78-21.9 273.73-21.9L273.73-21.9Q272.13-21.9 270.9-19.8 269.68-17.7 269.68-14.7L269.68-14.7 269.68-0.9 271.83-0.9 271.83 0 257.63 0 257.63-0.9 260.38-0.9 260.38-36.6 257.63-36.6ZM295.78-27.25Q293.13-27.25 292-28.6 290.88-29.95 290.88-31.95 290.88-33.95 292.1-35.25 293.33-36.55 295.83-36.55 298.33-36.55 299.63-35.38 300.93-34.2 300.93-32.02 300.93-29.85 299.68-28.55 298.43-27.25 295.78-27.25ZM288.23-22.9L288.23-23.8 300.48-23.8 300.48-0.9 303.28-0.9 303.28 0 288.43 0 288.43-0.9 291.18-0.9 291.18-22.9 288.23-22.9ZM304.37-22.9L304.37-23.8 316.42-23.8 316.42-19.2Q317.22-21.5 318.87-22.9 320.52-24.3 323.87-24.3L323.87-24.3Q331.62-24.3 331.62-15.95L331.62-15.95 331.62-0.9 334.42-0.9 334.42 0 320.27 0 320.27-0.9 322.32-0.9 322.32-17.15Q322.32-20.15 321.92-21.03 321.52-21.9 320.47-21.9L320.47-21.9Q318.87-21.9 317.65-19.8 316.42-17.7 316.42-14.7L316.42-14.7 316.42-0.9 318.57-0.9 318.57 0 304.37 0 304.37-0.9 307.12-0.9 307.12-22.9 304.37-22.9ZM365.32 0L351.42 0 351.42-0.9 353.72-0.9 348.07-12.5 347.12-12.25 347.12-0.9 349.42-0.9 349.42 0 335.07 0 335.07-0.9 337.82-0.9 337.82-36.6 334.87-36.6 334.87-37.5 347.12-37.5 347.12-13.25 347.92-13.55 359.17-22.9 354.47-22.9 354.47-23.8 364.32-23.8 364.32-22.9 360.82-22.9 354.87-17.85 363.52-0.9 365.32-0.9 365.32 0ZM373.42-27.25Q370.77-27.25 369.64-28.6 368.52-29.95 368.52-31.95 368.52-33.95 369.74-35.25 370.97-36.55 373.47-36.55 375.97-36.55 377.27-35.38 378.57-34.2 378.57-32.02 378.57-29.85 377.32-28.55 376.07-27.25 373.42-27.25ZM365.87-22.9L365.87-23.8 378.12-23.8 378.12-0.9 380.92-0.9 380.92 0 366.07 0 366.07-0.9 368.82-0.9 368.82-22.9 365.87-22.9ZM382.02-22.9L382.02-23.8 394.07-23.8 394.07-19.2Q394.87-21.5 396.52-22.9 398.17-24.3 401.52-24.3L401.52-24.3Q409.27-24.3 409.27-15.95L409.27-15.95 409.27-0.9 412.07-0.9 412.07 0 397.92 0 397.92-0.9 399.97-0.9 399.97-17.15Q399.97-20.15 399.57-21.03 399.17-21.9 398.12-21.9L398.12-21.9Q396.52-21.9 395.29-19.8 394.07-17.7 394.07-14.7L394.07-14.7 394.07-0.9 396.22-0.9 396.22 0 382.02 0 382.02-0.9 384.77-0.9 384.77-22.9 382.02-22.9ZM432.76-26.4L432.76-26.4 434.16-27.25Q434.46-28.8 432.96-28.8L432.96-28.8Q430.81-28.8 430.81-25.5L430.81-25.5Q430.81-24.2 431.16-22.5L431.16-22.5Q434.96-19.95 434.96-15.98 434.96-12 432.21-9.8 429.46-7.6 424.76-7.6L424.76-7.6Q422.81-7.6 420.71-8L420.71-8Q418.51-6.6 418.51-5.9 418.51-5.2 421.71-5.2L421.71-5.2 426.81-5.2Q438.16-5.2 438.16 2.95L438.16 2.95Q438.16 7.35 434.74 9.93 431.31 12.5 424.06 12.5L424.06 12.5Q411.71 12.5 411.71 7.15L411.71 7.15Q411.71 4.25 415.56 3.15L415.56 3.15 418.56 4.5Q418.16 5.95 418.16 7.25L418.16 7.25Q418.16 11.55 424.56 11.55L424.56 11.55Q428.46 11.55 430.56 10.1 432.66 8.65 432.66 6.5 432.66 4.35 431.39 3.63 430.11 2.9 426.31 2.9L426.31 2.9 421.46 2.9Q417.41 2.9 415.66 1.55 413.91 0.2 413.91-1.78 413.91-3.75 415.16-5.08 416.41-6.4 419.61-8.35L419.61-8.35Q413.81-10 413.81-15.95L413.81-15.95Q413.81-19.7 416.51-22 419.21-24.3 424.61-24.3L424.61-24.3Q427.86-24.3 430.16-23.05L430.16-23.05Q429.86-24.4 429.86-25.5L429.86-25.5Q429.86-28.3 431.36-29.55 432.86-30.8 434.71-30.8 436.56-30.8 437.69-29.83 438.81-28.85 438.81-27.15 438.81-25.45 437.91-24.63 437.01-23.8 435.74-23.8 434.46-23.8 433.64-24.48 432.81-25.15 432.76-26.4ZM422.16-17.05L422.16-17.05 422.16-14.35Q422.16-11 422.74-9.8 423.31-8.6 424.49-8.6 425.66-8.6 426.19-9.78 426.71-10.95 426.71-14.6L426.71-14.6 426.71-17.05Q426.71-20.95 426.21-22.18 425.71-23.4 424.54-23.4 423.36-23.4 422.76-22.13 422.16-20.85 422.16-17.05Z" opacity="1" transform="matrix(1,0,0,1,0,0)" fill="#3a9340" class="undefined-text-0" data-fill-palette-color="primary" id="text-0"></path></svg></g></svg></g></svg></g></svg></g></svg></g></svg></g></svg></g></svg></g><defs></defs></svg><rect width="395.52" height="247.2" fill="none" stroke="none" visibility="hidden"></rect></g></svg></g></svg>